<svg aria-hidden="true" style="width:0;height:0;position:absolute;overflow:hidden" xmlns="http://www.w3.org/2000/svg"><defs><symbol id="icon-arrow" viewBox="0 0 66 32"><path d="M66.462 15.652v.696C60.187 19.826 54.909 25.094 52.972 32c-.001.005-.444-.284-.468-.293s.026.004.028-.001C54 26.423 59.559 20.157 63.628 16.347c-19.891.492-43.754-.248-63.628.348v-1.391l63.628.348C59.559 11.842 54.122 5.341 52.643 0h.682c1.919 6.919 6.011 11.13 13.136 15.652z"/></symbol><symbol id="icon-clock" viewBox="0 0 32 32"><path d="M32 16c0 8.837-7.163 16-16 16S0 24.837 0 16 7.163 0 16 0s16 7.163 16 16zM16 7a1 1 0 0 0-2 0v11c0 .359.192.69.504.868l7 4a1 1 0 0 0 .992-1.736L16 17.42V7z"/></symbol><symbol id="icon-quote" viewBox="0 0 40 32"><path d="M2.938 30.159c2.294 2.455 6.177 2.455 8.648 0 2.294-2.455 2.294-6.137-.177-8.416-1.235-1.227-2.647-1.578-4.059-1.929C4.526 19.288.291 9.469 13.88.526L13.527 0C6.291 3.682 4.703 7.189 2.761 10.345c-3.883 7.189-3.53 16.307.176 19.814zm26.12 0c2.294 2.455 6.177 2.455 8.648 0C40 27.704 40 24.022 37.53 21.743c-1.235-1.227-2.647-1.578-4.059-1.929-2.824-.526-7.06-10.345 6.53-19.288L39.648 0c-7.236 3.682-8.824 7.189-10.766 10.345-3.883 7.189-3.53 16.307.177 19.814z"/></symbol><symbol id="icon-play" viewBox="0 0 29 32"><path d="M27.085 18.324 4.844 31.022C2.956 32.1.535 30.796.535 28.627V3.232c0-2.169 2.42-3.473 4.309-2.395l22.241 12.697a2.738 2.738 0 0 1 0 4.79z"/></symbol><symbol id="icon-s-inst" viewBox="0 0 32 32"><path d="M16 2.881c4.275 0 4.781.019 6.463.094 1.563.069 2.406.331 2.969.55a4.964 4.964 0 0 1 1.838 1.194 4.938 4.938 0 0 1 1.194 1.838c.219.563.481 1.412.55 2.969.075 1.688.094 2.194.094 6.462 0 4.275-.019 4.781-.094 6.463-.069 1.563-.331 2.406-.55 2.969a4.94 4.94 0 0 1-1.194 1.837 4.926 4.926 0 0 1-1.838 1.194c-.562.219-1.412.481-2.969.55-1.687.075-2.194.094-6.463.094-4.275 0-4.781-.019-6.463-.094-1.563-.069-2.406-.331-2.969-.55a4.94 4.94 0 0 1-1.838-1.194 4.93 4.93 0 0 1-1.194-1.837c-.219-.563-.481-1.413-.55-2.969-.075-1.687-.094-2.194-.094-6.463 0-4.275.019-4.781.094-6.462.069-1.563.331-2.406.55-2.969A4.964 4.964 0 0 1 4.73 4.719a4.926 4.926 0 0 1 1.838-1.194c.563-.219 1.412-.481 2.969-.55 1.681-.075 2.188-.094 6.463-.094zM16 0c-4.344 0-4.887.019-6.594.094-1.7.075-2.869.35-3.881.744-1.056.412-1.95.956-2.837 1.85a7.833 7.833 0 0 0-1.85 2.831C.444 6.538.169 7.7.094 9.4.019 11.113 0 11.656 0 16s.019 4.887.094 6.594c.075 1.7.35 2.869.744 3.881.413 1.056.956 1.95 1.85 2.837a7.833 7.833 0 0 0 2.831 1.844c1.019.394 2.181.669 3.881.744 1.706.075 2.25.094 6.594.094s4.887-.019 6.594-.094c1.7-.075 2.869-.35 3.881-.744 1.05-.406 1.944-.956 2.831-1.844s1.437-1.781 1.844-2.831c.394-1.019.669-2.181.744-3.881.075-1.706.094-2.25.094-6.594s-.019-4.888-.094-6.594c-.075-1.7-.35-2.869-.744-3.881a7.494 7.494 0 0 0-1.831-2.844A7.82 7.82 0 0 0 26.482.843C25.463.449 24.301.174 22.601.099c-1.713-.081-2.256-.1-6.6-.1z"/><path d="M16 7.781c-4.537 0-8.219 3.681-8.219 8.219s3.681 8.219 8.219 8.219c4.537 0 8.219-3.681 8.219-8.219S20.538 7.781 16 7.781zm0 13.55a5.331 5.331 0 1 1 0-10.663 5.331 5.331 0 0 1 0 10.663zM26.463 7.456a1.92 1.92 0 1 1-3.839 0 1.92 1.92 0 0 1 3.839 0z"/></symbol><symbol id="icon-s-tiktok" viewBox="0 0 28 32"><path d="M20.097 0h-5.393v21.797c0 2.597-2.074 4.731-4.655 4.731s-4.655-2.133-4.655-4.731c0-2.551 2.028-4.638 4.517-4.73v-5.472c-5.485.093-9.91 4.591-9.91 10.203 0 5.658 4.517 10.203 10.094 10.203s10.094-4.591 10.094-10.203V10.621a12.493 12.493 0 0 0 7.145 2.412V7.561c-4.056-.139-7.237-3.478-7.237-7.559z"/></symbol><symbol id="icon-s-twit" viewBox="0 0 38 32"><path d="M12.08 31.6c14.487 0 22.413-12.005 22.413-22.413 0-.338-.008-.682-.023-1.02a15.99 15.99 0 0 0 3.929-4.079 15.52 15.52 0 0 1-4.522 1.237A7.914 7.914 0 0 0 37.341.968 15.853 15.853 0 0 1 32.34 2.88a7.89 7.89 0 0 0-13.43 7.184A22.374 22.374 0 0 1 2.676 1.838a7.89 7.89 0 0 0 2.437 10.513 7.902 7.902 0 0 1-3.569-.982v.098a7.876 7.876 0 0 0 6.321 7.725 7.834 7.834 0 0 1-3.554.135 7.892 7.892 0 0 0 7.355 5.475A15.796 15.796 0 0 1-.002 28.061a22.359 22.359 0 0 0 12.08 3.539z"/></symbol><symbol id="icon-location" viewBox="0 0 24 32"><path d="M12 32S0 20.627 0 12C0 5.373 5.373 0 12 0s12 5.373 12 12c0 8.627-12 20-12 20zm0-14a6 6 0 1 0 0-12 6 6 0 0 0 0 12z"/></symbol><symbol id="icon-menu" viewBox="0 0 24 24"><path d="M3 13h18a1 1 0 0 0 0-2H3a1 1 0 0 0 0 2zm0-6h18a1 1 0 0 0 0-2H3a1 1 0 0 0 0 2zm0 12h18a1 1 0 0 0 0-2H3a1 1 0 0 0 0 2z"/></symbol></defs></svg>