<svg width="217" height="78" fill="none" xmlns="http://www.w3.org/2000/svg"><path d="M22.012 0H.377L0 4.076h.047C3.394 2.483 5.562.75 8.06.75h.99v29.423h4.289V.75h.942c2.499 0 4.761 1.78 8.108 3.373h.094L22.012 0ZM48.623 0v14.102H33.775V0h-4.242v30.173h4.242v-15.32h14.848v15.32h4.242V0h-4.242ZM68.97 29.423h-2.403v-14.57h7.918v-.75h-7.918V.75h2.403c3.583 0 7.825.28 9.427 4.544h.896L79.246 0H62.325v30.173h16.92l.048-5.295h-.896c-1.602 4.264-5.844 4.545-9.427 4.545ZM139.638 0c-1.273 3.936-2.31 6.934-4.478 12.978l-3.677 10.589L123.376 0h-.188l-8.296 23.567L106.785 0h-4.525l10.747 30.829h.141l8.343-23.614 8.201 23.614h.142l6.127-17.57C137.799 8.105 139.119 4.31 140.91 0h-1.272ZM152.236 30.173V0h-4.242v30.173h4.242ZM177.802 24.878c-1.603 4.264-5.845 4.545-9.427 4.545h-2.404V0h-4.242v30.173h16.921l.047-5.295h-.895ZM196.564 0h-10.605v30.173h9.898c10.322 0 16.779-5.67 16.779-15.415C212.636 5.201 206.179 0 196.564 0Zm0 29.517c-3.347 0-5.279-.14-6.363-.375V.702h5.986c7.164 0 11.783 5.717 11.783 14.29 0 9.277-4.148 14.525-11.406 14.525ZM7.194 77.025V46.852H2.952v30.173h4.242Zm18.57-30.08v-.093h-1.602c-2.31 2.202-5.185 4.873-9.663 9.09l-5.986 5.621L18.93 77.025h5.609L12 59.407l3.017-2.858c3.865-3.654 7.211-6.746 10.746-9.604ZM36.993 77.025V46.852H32.75v30.173h4.242ZM66.753 46.852V70.23l-16.638-23.38h-5.043v.142l2.027 2.81v27.175h.848V50.975L67.225 77.54h.377V46.852h-.849ZM92.528 63.344l.47.75h6.977v10.213c-1.838 1.453-4.667 2.483-7.73 2.483-7.07 0-11.737-6.137-11.737-14.899 0-8.995 4.243-14.852 10.888-14.852 2.168 0 3.441 1.312 4.384 3.046 1.508 2.717 5.137 3.326 7.353 1.171l.094-.047c-2.498-2.764-6.552-4.826-11.454-4.826-9.096 0-15.93 6.185-15.93 15.79 0 9.698 6.456 15.367 16.213 15.367 5.374 0 9.144-1.827 11.831-3.795V63.344h-11.36ZM122.949 46.852h-10.605v30.173h9.898c10.323 0 16.78-5.67 16.78-15.415 0-9.557-6.457-14.758-16.073-14.758Zm0 29.517c-3.346 0-5.279-.14-6.363-.375v-28.44h5.986c7.165 0 11.784 5.717 11.784 14.29 0 9.277-4.148 14.525-11.407 14.525ZM162.053 46.383c-9.05 0-16.026 6.185-16.026 15.883 0 9.511 6.835 15.274 15.507 15.274 9.003 0 16.026-6.184 16.026-15.883 0-9.51-6.835-15.274-15.507-15.274Zm-.094 30.501c-6.646 0-11.265-6.044-11.265-15.086 0-8.902 4.336-14.759 11.029-14.759 6.552 0 11.171 6.044 11.171 15.087 0 8.902-4.337 14.758-10.935 14.758ZM213.702 46.852h-3.818L201.07 69.06l-10.039-22.208h-4.572v.14l.895 1.968-2.639 28.018h.801l2.498-26.472 11.312 24.644h.189l10.181-25.674 2.592 27.549h4.289l-2.875-30.173Z" fill="#C1AB81"/></svg>