<svg width="1916" height="399" viewBox="0 0 1916 399" fill="none" xmlns="http://www.w3.org/2000/svg">
<mask id="mask0_2061_4612" style="mask-type:alpha" maskUnits="userSpaceOnUse" x="0" y="0" width="1920" height="404">
<rect width="1920" height="404" fill="#222220"/>
</mask>
<g mask="url(#mask0_2061_4612)">
<g style="mix-blend-mode:screen">
<g style="mix-blend-mode:screen">
<path d="M1894.41 30.1166L1893.91 29.8752H1893.63H1893.26L1893 29.9867L1892.8 30.1352H1892.65L1892.45 30.2281C1892.03 30.408 1891.68 30.697 1891.42 31.0636L1891.33 31.3608V31.7879L1891.42 32.085L1891.78 32.5492L1892.04 32.7349L1892.45 32.8463H1892.76H1893.02H1893.11L1893.71 32.6606C1894.04 32.5292 1894.33 32.3053 1894.53 32.0155C1894.74 31.7258 1894.86 31.3824 1894.88 31.0265V30.748L1894.67 30.4137L1894.41 30.1166Z" fill="#53240B"/>
</g>
<g style="mix-blend-mode:screen">
<path d="M1842.42 10.0618L1842.27 10.3032V10.4146V10.5817V11.1388V11.3245V11.4359C1842.38 11.6654 1842.56 11.8585 1842.77 11.9932C1842.99 12.1279 1843.24 12.1986 1843.5 12.1973C1843.76 12.1996 1844.02 12.1321 1844.25 12.0016C1844.47 11.8711 1844.66 11.6823 1844.8 11.4545C1844.91 11.2612 1844.99 11.0422 1845 10.8159C1845.02 10.5897 1844.98 10.3628 1844.89 10.1547C1844.82 9.97477 1844.71 9.81354 1844.57 9.68436C1844.43 9.55517 1844.26 9.46177 1844.07 9.41189C1843.76 9.29916 1843.43 9.30305 1843.12 9.42283C1842.82 9.54262 1842.57 9.76996 1842.42 10.0618Z" fill="#9F5504"/>
</g>
<g style="mix-blend-mode:screen">
<path d="M1849.79 8.09385V8.35382V8.55808C1849.86 8.88283 1850.06 9.16706 1850.34 9.35071C1850.61 9.53436 1850.95 9.60304 1851.28 9.54225H1851.44L1851.65 9.43084L1851.78 9.31943L1851.93 9.20802L1852.11 9.02232V8.87376L1852.26 8.53953V8.39097V8.001C1852.22 7.80935 1852.14 7.6284 1852.02 7.46891C1851.91 7.30941 1851.76 7.17463 1851.59 7.07254C1851.42 6.97939 1851.23 6.92305 1851.04 6.90706C1850.84 6.89108 1850.64 6.9158 1850.46 6.97968L1850.14 7.10968L1850 7.22109L1849.81 7.42536V7.59247L1849.68 8.001L1849.79 8.09385Z" fill="#E3D1BD"/>
</g>
<g style="mix-blend-mode:screen">
<path d="M1893.84 23.2088C1893.95 23.3948 1894.1 23.5551 1894.28 23.6798C1894.46 23.8044 1894.66 23.8906 1894.88 23.933H1895.06H1895.32H1895.51L1895.86 23.6915L1895.99 23.5616L1896.16 23.3573V23.1902C1896.21 22.9391 1896.21 22.6799 1896.16 22.4288V22.1132V21.8903L1895.95 21.4447L1895.82 21.259L1895.56 21.0547H1895.36C1895.17 20.9989 1894.97 20.9827 1894.77 21.0071C1894.57 21.0315 1894.38 21.096 1894.2 21.1966C1894.03 21.2973 1893.88 21.432 1893.76 21.5927C1893.64 21.7534 1893.55 21.9368 1893.5 22.1317C1893.49 22.5186 1893.61 22.8993 1893.84 23.2088Z" fill="#D59C38"/>
</g>
<g style="mix-blend-mode:screen">
<path d="M1883.01 9.3002L1883.18 9.17023L1883.36 8.9474L1883.48 8.7617C1883.6 8.58554 1883.68 8.3804 1883.7 8.16585C1883.72 7.95131 1883.69 7.73449 1883.61 7.53612L1883.49 7.35044L1883.27 7.14618L1883.11 7.05333L1882.59 6.86763H1882.49C1882.18 6.85404 1881.88 6.93855 1881.62 7.10904L1881.47 7.22045L1881.36 7.38756L1881.23 7.64753V7.83324V8.44603V8.68744L1881.34 8.87311C1881.52 9.13016 1881.79 9.31406 1882.1 9.39223C1882.4 9.4704 1882.73 9.43779 1883.01 9.3002Z" fill="#D6BDA1"/>
</g>
<g style="mix-blend-mode:screen">
<path d="M1901.66 22.9491V23.0976V23.2833V23.8033V23.9518C1901.72 24.1737 1901.84 24.3737 1902.01 24.5275L1902.18 24.6389L1902.44 24.7317H1902.64H1903.14H1903.29C1903.52 24.6678 1903.74 24.5391 1903.9 24.3603V24.1932L1904.01 23.9332V23.729V23.2276V22.9491L1904.11 22.7819L1904.27 22.392V22.2063V21.9277V21.7421C1904.1 21.3618 1903.82 21.044 1903.46 20.8322L1903.16 20.665H1903.01H1902.6L1902.23 20.7579H1902.08L1901.88 20.8879L1901.77 20.9993C1901.61 21.1847 1901.5 21.402 1901.43 21.6361C1901.37 21.8702 1901.36 22.1155 1901.4 22.3548C1901.43 22.5708 1901.52 22.7746 1901.66 22.9491Z" fill="#EADECF"/>
</g>
<g style="mix-blend-mode:screen">
<path d="M1881.49 45.6593V45.9006V46.1049C1881.63 46.406 1881.88 46.6428 1882.18 46.7671C1882.49 46.8914 1882.83 46.8936 1883.14 46.7734L1883.29 46.6806L1883.48 46.532L1883.59 46.402L1883.72 46.272L1883.87 46.0492V45.8821V45.5293V45.3807V45.1579V45.0093C1883.79 44.8251 1883.67 44.6598 1883.52 44.5251C1883.38 44.3904 1883.2 44.2895 1883.01 44.2294C1882.83 44.1678 1882.63 44.1476 1882.44 44.17C1882.25 44.1925 1882.06 44.2571 1881.9 44.3594L1881.6 44.5451L1881.49 44.6936L1881.36 44.9165V45.1022V45.5107L1881.49 45.6593Z" fill="#F9E59F"/>
</g>
<g style="mix-blend-mode:screen">
<path d="M1889.77 30.0979L1889.34 29.8936H1889.18H1888.99V29.9865L1888.84 29.8751C1888.5 29.8548 1888.16 29.946 1887.88 30.135C1887.66 30.3002 1887.49 30.5306 1887.41 30.7938C1887.33 31.057 1887.33 31.3397 1887.41 31.602V31.7691L1887.58 31.9734L1887.73 32.1034L1888.1 32.3077H1888.23H1888.43H1888.56C1888.96 32.3653 1889.35 32.2723 1889.68 32.0477C1889.9 31.8892 1890.07 31.665 1890.17 31.4058C1890.26 31.1465 1890.27 30.8648 1890.2 30.5993L1890.09 30.4136L1889.88 30.1722L1889.77 30.0979Z" fill="#F9F6D2"/>
</g>
<g style="mix-blend-mode:screen">
<path d="M1899.84 26.3102H1900.06H1900.28C1900.49 26.351 1900.71 26.3421 1900.92 26.284C1901.12 26.226 1901.31 26.1205 1901.47 25.9759L1901.71 25.6788V25.5674V25.4003V25.2889V25.0103V24.8061V24.6947C1901.64 24.4877 1901.52 24.3023 1901.36 24.1561C1901.19 24.0098 1901 23.9075 1900.78 23.859C1900.53 23.8036 1900.26 23.8101 1900 23.8779C1899.75 23.9456 1899.51 24.0728 1899.32 24.249C1899.16 24.3881 1899.03 24.5637 1898.95 24.7609C1898.88 24.958 1898.85 25.171 1898.87 25.3817V25.4931V25.6417V25.7531L1899.06 26.0317L1899.24 26.1802L1899.84 26.3102Z" fill="#8C4703"/>
</g>
<g style="mix-blend-mode:screen">
<path d="M1867.95 4.78821L1867.64 4.63965H1867.27H1867.08L1866.54 4.80677L1866.32 4.97391L1866.08 5.271L1865.97 5.51241V5.60526C1865.91 5.80178 1865.89 6.00828 1865.92 6.21147C1865.94 6.41467 1866.01 6.61005 1866.12 6.78499C1866.23 6.95994 1866.37 7.11057 1866.54 7.22721C1866.71 7.34385 1866.9 7.4239 1867.1 7.46219H1867.28H1867.53H1867.69L1868.03 7.27648L1868.18 7.16507L1868.34 6.97937V6.81225C1868.52 6.4806 1868.57 6.09973 1868.5 5.732C1868.43 5.36427 1868.24 5.03149 1867.95 4.78821Z" fill="#EADECF"/>
</g>
<g style="mix-blend-mode:screen">
<path d="M1907.34 50.4503H1907.54H1907.84H1908.04H1908.16C1908.37 50.4422 1908.59 50.3803 1908.77 50.2702C1908.96 50.16 1909.12 50.0049 1909.23 49.8189V49.6146V49.3361V49.1319L1909.05 48.6119V48.4448C1908.87 48.191 1908.61 47.9969 1908.32 47.8877H1908.14H1907.93H1907.65H1907.47L1907.12 48.1291L1906.99 48.2405L1906.84 48.4448V48.649C1906.75 48.8001 1906.7 48.9667 1906.67 49.1391C1906.65 49.3116 1906.67 49.4865 1906.71 49.6539C1906.76 49.8213 1906.84 49.9778 1906.95 50.1145C1907.05 50.2512 1907.19 50.3653 1907.34 50.4503Z" fill="#DFCBB3"/>
</g>
<g style="mix-blend-mode:screen">
<path d="M1896.4 16.2082V16.4311V16.8025V17.0439L1896.62 17.5267L1896.79 17.7124L1897.05 17.8981V18.0466V18.3623L1897.16 18.5666L1897.46 18.9194H1897.55C1897.74 19.1371 1898.01 19.2814 1898.29 19.3279C1898.59 19.3785 1898.89 19.322 1899.15 19.1687C1899.4 19.0153 1899.59 18.7753 1899.69 18.4923V18.3251V17.9166L1899.56 17.5267V17.3967L1899.45 17.2667L1899.71 17.0624C1899.91 16.8901 1900.07 16.6767 1900.18 16.4365C1900.29 16.1963 1900.35 15.9348 1900.36 15.6697V15.4098L1900.15 15.0941L1899.95 14.9084L1899.46 14.667H1899.19H1898.81L1898.57 14.7598C1898.41 14.8581 1898.23 14.939 1898.05 15.0013C1897.38 15.1995 1896.79 15.6262 1896.4 16.2082Z" fill="#EEE3D8"/>
</g>
<g style="mix-blend-mode:screen">
<path d="M1906.99 29.541L1906.73 29.671L1906.58 29.7824C1906.39 29.9617 1906.25 30.1851 1906.17 30.4324C1906 30.6791 1905.93 30.9781 1905.96 31.2747C1905.99 31.5713 1906.13 31.8457 1906.35 32.0479C1906.64 32.3109 1907.01 32.4569 1907.39 32.4564C1907.56 32.4581 1907.72 32.4261 1907.88 32.3622C1908.03 32.2984 1908.17 32.2041 1908.28 32.0851L1908.43 31.7508V31.5651V31.4536V31.2123V31.0451V30.5438C1908.42 30.3142 1908.35 30.0917 1908.23 29.8938L1908.04 29.7267L1907.73 29.5596H1907.49H1907.19L1906.99 29.541Z" fill="#D59C38"/>
</g>
<g style="mix-blend-mode:screen">
<path d="M1912.2 127.104L1911.91 127.587V127.847V128.237V128.496L1912.02 128.719V128.868V129.072C1912.16 129.503 1912.42 129.887 1912.76 130.186L1913.04 130.298H1913.47H1913.78L1914.28 130.001L1914.47 129.759L1914.64 129.351V129.054V128.775V128.682C1914.6 128.474 1914.55 128.269 1914.49 128.069C1914.39 127.729 1914.19 127.424 1913.93 127.19C1913.66 126.957 1913.33 126.804 1912.98 126.751H1912.7L1912.35 126.918L1912.2 127.104Z" fill="#F9D46B"/>
</g>
<g style="mix-blend-mode:screen">
<path d="M1878.22 14.0914L1878.11 14.2957V14.4628C1878.05 14.8595 1878.15 15.2632 1878.37 15.5955C1878.57 15.8825 1878.87 16.0847 1879.22 16.1634C1879.56 16.2422 1879.92 16.1921 1880.23 16.0226L1880.34 15.9112L1880.63 15.5212V15.3727V15.2613C1880.7 14.8845 1880.61 14.4981 1880.39 14.1842C1880.24 13.9611 1880.02 13.7846 1879.78 13.6734C1879.53 13.5622 1879.25 13.5205 1878.98 13.5529H1878.82L1878.78 13.6643L1878.65 13.7572L1878.37 13.9985L1878.22 14.0914Z" fill="#E7D8C6"/>
</g>
<g style="mix-blend-mode:screen">
<path d="M1916.68 132.285V132.081V131.765C1916.67 131.548 1916.62 131.336 1916.52 131.143C1916.42 130.951 1916.27 130.782 1916.1 130.651C1915.86 130.45 1915.56 130.331 1915.24 130.307C1914.92 130.284 1914.61 130.359 1914.34 130.521C1914.07 130.683 1913.85 130.926 1913.72 131.215C1913.59 131.504 1913.55 131.825 1913.61 132.136V132.341L1913.73 132.526V132.619L1914.15 132.953L1914.32 133.046H1914.58H1914.77H1915.21H1915.4L1915.62 132.916L1915.77 132.786L1916.1 132.359L1916.68 132.285Z" fill="#793903"/>
</g>
<g style="mix-blend-mode:screen">
<path d="M1909.68 111.023L1909.77 110.912V110.745V110.615V110.281V109.928V109.798C1909.55 109.392 1909.2 109.071 1908.78 108.886C1908.35 108.701 1907.88 108.662 1907.43 108.776L1907.15 108.944L1906.86 109.296L1906.74 109.612V110.225L1906.86 110.522L1907.12 110.875L1907.32 111.023L1907.49 111.116C1908.49 111.599 1909.18 111.58 1909.68 111.023Z" fill="#F9E59F"/>
</g>
<path d="M1724.29 -480.509L1691.46 -447.683L2365.06 225.91L2397.89 193.084L1724.29 -480.509Z" fill="url(#paint0_linear_2061_4612)"/>
<path d="M1697.37 -453.582L1691.46 -447.673L2365.06 225.919L2370.97 220.011L1697.37 -453.582Z" fill="url(#paint1_linear_2061_4612)"/>
<path d="M1540.65 -364.592L1538.6 -362.544L2254.56 353.408L2256.61 351.36L1540.65 -364.592Z" fill="url(#paint2_linear_2061_4612)"/>
<path d="M1637.22 -464.854L1635.18 -462.805L2351.13 253.146L2353.18 251.098L1637.22 -464.854Z" fill="url(#paint3_linear_2061_4612)"/>
<path d="M1753.29 -528L1751.24 -525.952L2467.2 190L2469.24 187.952L1753.29 -528Z" fill="url(#paint4_linear_2061_4612)"/>
<path d="M1504.46 -365.846L1502.41 -363.797L2218.36 352.154L2220.41 350.106L1504.46 -365.846Z" fill="url(#paint5_linear_2061_4612)"/>
<path d="M1430.05 -364.169L1428 -362.12L2143.96 353.831L2146 351.783L1430.05 -364.169Z" fill="url(#paint6_linear_2061_4612)"/>
<path d="M1679.43 -512.663L1677.38 -510.615L2393.34 205.337L2395.39 203.289L1679.43 -512.663Z" fill="url(#paint7_linear_2061_4612)"/>
<g style="mix-blend-mode:screen">
<path d="M2002.39 -54.7263C2089.41 32.2893 2154.07 108.683 2146.83 115.962C2139.59 123.242 2063.15 58.5648 1976.14 -28.4508C1889.12 -115.466 1824.44 -191.86 1831.7 -199.14C1838.97 -206.419 1915.38 -141.742 2002.39 -54.7263Z" fill="url(#paint8_radial_2061_4612)"/>
</g>
<g style="mix-blend-mode:screen">
<path d="M1996.64 -48.9697C2045.57 -0.058197 2081.93 42.9111 2077.84 47.0892C2073.76 51.2673 2030.81 14.8158 1981.88 -34.1143C1932.94 -83.0443 1896.6 -126.088 1900.69 -130.173C1904.78 -134.258 1947.73 -97.8997 1996.64 -48.9697Z" fill="url(#paint9_radial_2061_4612)"/>
</g>
<g style="mix-blend-mode:screen">
<path d="M1984.75 58.5464C2071.77 145.562 2136.43 221.956 2129.19 229.235C2121.94 236.514 2045.51 171.838 1958.5 84.8219C1871.48 -2.19373 1806.8 -78.5878 1814.06 -85.8669C1821.32 -93.1461 1897.74 -28.4692 1984.75 58.5464Z" fill="url(#paint10_radial_2061_4612)"/>
</g>
<g style="mix-blend-mode:screen">
<path d="M1979.05 64.3028C2027.93 113.214 2064.29 156.184 2060.2 160.362C2056.12 164.54 2013.16 127.995 1964.2 79.0654C1915.23 30.1353 1878.96 -12.8154 1883.05 -16.9007C1887.13 -20.9859 1930.09 15.3727 1979.05 64.3028Z" fill="url(#paint11_radial_2061_4612)"/>
</g>
</g>
<g style="mix-blend-mode:screen">
<g style="mix-blend-mode:screen">
<path d="M24.9457 399.299H25.0757H25.28H25.7814H25.8928C26.1226 399.27 26.3406 399.181 26.5241 399.039L26.6727 398.891L26.8027 398.649V398.463V397.962V397.814C26.7666 397.574 26.6778 397.346 26.5427 397.145L26.3941 397.015L26.1342 396.867H25.9485H25.4471H25.2243L25.0757 396.737L24.7229 396.514H24.5372H24.2772H24.073C23.6653 396.601 23.299 396.824 23.0331 397.145L22.8288 397.405V397.554V397.776V397.944V398.333V398.501L22.9217 398.705V398.853C23.0781 399.041 23.2741 399.192 23.4956 399.294C23.7172 399.397 23.9587 399.449 24.203 399.448C24.4593 399.465 24.7157 399.414 24.9457 399.299Z" fill="#D59C38"/>
</g>
<g style="mix-blend-mode:screen">
<path d="M30.4608 363.386L30.2008 363.887V364.147V364.537L30.2937 364.797L30.4236 365.002V365.132V365.354C30.5943 365.775 30.8769 366.141 31.2407 366.413L31.5192 366.506H31.9463H32.2434L32.7263 366.171L32.9119 365.911L33.0419 365.503V365.206V364.927C33.0419 364.742 32.9305 364.537 32.8562 364.333C32.736 363.997 32.5215 363.702 32.2382 363.485C31.955 363.268 31.6151 363.137 31.2593 363.107H30.9807L30.6465 363.293L30.4608 363.386Z" fill="#662B02"/>
</g>
<g style="mix-blend-mode:screen">
<path d="M63.8672 374.806V374.602V374.323V374.119V373.952V373.84V373.618L63.7186 373.135L63.6072 372.949L63.3658 372.726L63.1801 372.596C62.9932 372.521 62.7921 372.489 62.5911 372.5C62.3901 372.512 62.1941 372.567 62.0169 372.663C61.8398 372.759 61.6858 372.892 61.5659 373.054C61.4461 373.216 61.3632 373.402 61.3231 373.599L61.4717 373.915L61.3603 374.156L61.5831 374.695V374.917C61.7094 375.142 61.897 375.326 62.1239 375.447C62.3508 375.569 62.6076 375.623 62.8644 375.604C63.0876 375.573 63.2983 375.482 63.4746 375.342C63.651 375.202 63.7865 375.016 63.8672 374.806Z" fill="#EADECF"/>
</g>
<g style="mix-blend-mode:screen">
<path d="M29.7553 372.021H29.9224L30.1638 371.873L30.3123 371.743L30.5537 371.39V371.223V370.944V370.758C30.5306 370.533 30.4567 370.316 30.3378 370.123C30.2188 369.93 30.0577 369.766 29.8667 369.644H29.7367H29.4024H29.0496C28.7308 369.747 28.4632 369.968 28.3011 370.261C28.139 370.554 28.0946 370.898 28.1769 371.223C28.2975 371.525 28.5245 371.773 28.8151 371.92C29.1058 372.067 29.4401 372.103 29.7553 372.021Z" fill="#C47F1E"/>
</g>
<g style="mix-blend-mode:screen">
<path d="M17.908 381.138V381.38V381.565C18.0206 381.835 18.2013 382.071 18.4324 382.25C18.6635 382.429 18.9371 382.545 19.2264 382.587C19.4772 382.627 19.7341 382.608 19.9761 382.531C20.218 382.453 20.4384 382.32 20.6191 382.141C20.8665 381.907 21.0506 381.614 21.1545 381.289C21.2584 380.964 21.2786 380.619 21.2133 380.284C21.138 379.987 20.9848 379.714 20.7694 379.496C20.554 379.277 20.2842 379.12 19.9877 379.04H19.8206H19.5606H19.3749L19.0036 379.226H18.855L18.6693 379.43V379.541L18.5393 379.709C18.2515 380.019 18.0582 380.406 17.9822 380.823L17.908 381.138Z" fill="#EADECF"/>
</g>
<g style="mix-blend-mode:screen">
<path d="M10.3502 378.26C10.1384 378.308 9.93856 378.399 9.76296 378.526C9.58736 378.654 9.43964 378.816 9.32884 379.003V379.189V379.449V379.653L9.44026 380.061V380.228L9.58881 380.433L9.7188 380.563C9.93789 380.706 10.1847 380.8 10.443 380.841L10.7401 380.953H10.9629H11.4458H11.6686L11.9286 380.786L12.0957 380.618C12.3055 380.288 12.3765 379.888 12.293 379.505C12.2095 379.123 11.9785 378.789 11.65 378.576C11.4679 378.434 11.2579 378.333 11.0339 378.279C10.8098 378.224 10.5768 378.218 10.3502 378.26Z" fill="#793903"/>
</g>
<g style="mix-blend-mode:screen">
<path d="M15.3268 383.069L15.4568 382.865V382.717C15.5536 382.326 15.4936 381.912 15.2897 381.565C15.1132 381.249 14.8206 381.015 14.474 380.911C14.1274 380.807 13.754 380.842 13.4327 381.008H13.3027L13.117 381.212V381.305V381.454V381.547C13.0245 381.924 13.0776 382.321 13.2656 382.661C13.4153 382.887 13.6197 383.072 13.8599 383.199C14.1001 383.326 14.3683 383.39 14.6397 383.385H14.7883H15.0111H15.1597L15.4568 383.144L15.3268 383.069Z" fill="#C47F1E"/>
</g>
<g style="mix-blend-mode:screen">
<path d="M41.8253 313.769L41.9738 313.528V313.416V313.249V312.692V312.507V312.395C41.862 312.166 41.6876 311.973 41.4708 311.838C41.2539 311.703 41.0035 311.632 40.7483 311.634C40.4852 311.631 40.2263 311.699 39.9979 311.829C39.7695 311.96 39.5799 312.149 39.4484 312.377C39.3296 312.57 39.2591 312.789 39.243 313.015C39.2268 313.241 39.2654 313.468 39.3556 313.676C39.4228 313.856 39.5321 314.018 39.6742 314.147C39.8163 314.276 39.9872 314.369 40.1726 314.419C40.4799 314.532 40.8178 314.528 41.1224 314.408C41.427 314.288 41.6771 314.061 41.8253 313.769Z" fill="#9F5504"/>
</g>
<g style="mix-blend-mode:screen">
<path d="M-0.550087 326.879L-0.401532 327.009L-0.141561 327.139H0.0441337H0.248397L0.452661 327.232H0.954034H1.25114H1.56682L1.77109 327.121C1.9147 326.99 2.02945 326.831 2.10797 326.653C2.18649 326.476 2.22705 326.284 2.22705 326.09C2.22705 325.896 2.18649 325.704 2.10797 325.526C2.02945 325.349 1.9147 325.19 1.77109 325.059H1.41827L1.26971 324.855H0.675494L0.489799 324.744C0.235201 324.734 -0.0167024 324.799 -0.2346 324.931C-0.452497 325.063 -0.626779 325.256 -0.735782 325.486C-0.848762 325.71 -0.891483 325.963 -0.858347 326.211C-0.825211 326.46 -0.717763 326.693 -0.550087 326.879Z" fill="#E7D8C6"/>
</g>
<g style="mix-blend-mode:screen">
<path d="M55.4924 334.715V335.105V335.291V335.551V335.718L55.7153 336.071L55.8453 336.201L56.0495 336.35H56.2167C56.425 336.411 56.6444 336.427 56.8594 336.395C57.0743 336.363 57.2796 336.284 57.4608 336.164C57.6319 336.043 57.7762 335.889 57.8848 335.71C57.9935 335.531 58.0641 335.331 58.0922 335.124V334.808V334.548L57.9993 334.381L57.7579 334.065L57.6094 333.936L57.3865 333.806H57.2194H56.8109H56.6252H56.3652H56.1795L55.8267 334.047L55.6039 334.307L55.4739 334.53L55.4924 334.715Z" fill="#431B06"/>
</g>
<g style="mix-blend-mode:screen">
<path d="M12.3555 369.774L12.7826 369.422L12.9126 369.254L13.0426 368.976V368.79C13.0622 368.569 13.0324 368.345 12.9554 368.137C12.8783 367.928 12.7559 367.739 12.5969 367.583C12.4475 367.449 12.2695 367.351 12.0764 367.297C11.8833 367.242 11.6803 367.232 11.4828 367.268H11.3342L11.13 367.379H11L10.74 367.658L10.6286 367.787V368.01V368.177C10.5934 368.501 10.6652 368.826 10.8329 369.105C11.0006 369.383 11.255 369.599 11.5571 369.719H11.817H12.1884L12.3555 369.774Z" fill="#9F5504"/>
</g>
<g style="mix-blend-mode:screen">
<path d="M1.54827 396.514L1.65969 396.644H1.75253L2.03107 396.848H2.14249H2.29105H2.42103C2.67268 396.881 2.92852 396.837 3.15424 396.721C3.37995 396.605 3.56472 396.422 3.68375 396.198C3.83037 395.938 3.8963 395.64 3.87316 395.343C3.85001 395.045 3.73883 394.761 3.55377 394.527L3.36807 394.378L3.05239 394.23H2.81099H2.30962H2.06821L1.78967 394.415L1.62255 394.583C1.46576 394.804 1.36958 395.063 1.34352 395.334C1.31747 395.604 1.36244 395.876 1.47399 396.124L1.54827 396.514Z" fill="#F9DD85"/>
</g>
<g style="mix-blend-mode:screen">
<path d="M34.4532 315.737V315.477V315.273C34.3817 314.948 34.1868 314.664 33.9096 314.48C33.6323 314.297 33.2946 314.228 32.9677 314.289H32.8005L32.5963 314.4L32.4663 314.512L32.3177 314.623L32.132 314.809V314.957L31.9835 315.292V315.44V315.83C32.027 316.022 32.1087 316.203 32.2235 316.362C32.3383 316.522 32.484 316.656 32.652 316.759C32.824 316.852 33.0136 316.908 33.2086 316.924C33.4036 316.94 33.5998 316.915 33.7847 316.851L34.1004 316.721L34.249 316.61L34.4347 316.406V316.239L34.5646 315.83L34.4532 315.737Z" fill="#E3D1BD"/>
</g>
<g style="mix-blend-mode:screen">
<path d="M1.2326 314.531L1.06547 314.661L0.879776 314.884L0.768361 315.069C0.643795 315.246 0.566443 315.451 0.543688 315.665C0.520932 315.88 0.553531 316.097 0.638374 316.295L0.749791 316.481L0.972623 316.685L1.13975 316.778L1.65969 316.963H1.75254C2.06164 316.977 2.36712 316.893 2.6253 316.722L2.77386 316.611L2.88527 316.443L3.01526 316.184V315.998V315.385V315.144L2.90384 314.958C2.72054 314.701 2.45219 314.517 2.14631 314.439C1.84043 314.361 1.51675 314.393 1.2326 314.531Z" fill="#D6BDA1"/>
</g>
<g style="mix-blend-mode:screen">
<path d="M27.7497 362.161H27.6011H27.3783H26.5241H26.3198L26.0599 362.291L25.9113 362.402C25.6856 362.65 25.5414 362.961 25.4983 363.293C25.4551 363.625 25.515 363.962 25.6699 364.259L25.8928 364.389L26.227 364.575L26.4498 364.76H27.0255H27.2855L27.5826 364.575L27.3969 364.278L27.7497 364.389L27.5269 364.203H27.434L27.824 364.445C27.9896 364.304 28.1209 364.127 28.2078 363.927C28.2947 363.728 28.3349 363.511 28.3253 363.294C28.34 363.07 28.2943 362.847 28.193 362.648C28.0917 362.449 27.9386 362.28 27.7497 362.161Z" fill="#F9D46B"/>
</g>
<g style="mix-blend-mode:screen">
<path d="M2.75536 278.172V277.93V277.726C2.61699 277.425 2.36886 277.188 2.06168 277.064C1.7545 276.94 1.41146 276.937 1.10268 277.058L0.954127 277.15L0.768434 277.299L0.657017 277.429L0.527031 277.559L0.378476 277.782V277.949V278.302V278.45V278.673V278.822C0.455608 279.006 0.57199 279.171 0.719514 279.306C0.867038 279.441 1.04216 279.542 1.23267 279.602C1.41651 279.663 1.61168 279.684 1.80426 279.661C1.99685 279.639 2.1821 279.574 2.34683 279.472L2.64394 279.286L2.75536 279.137L2.88535 278.915V278.729V278.32L2.75536 278.172Z" fill="#F9E59F"/>
</g>
<g style="mix-blend-mode:screen">
<path d="M16.2924 319.043L16.6081 319.191H16.9795H17.1652L17.7037 319.024L17.9265 318.857L18.1679 318.56L18.2793 318.319V318.226C18.3374 318.029 18.3537 317.823 18.3271 317.62C18.3005 317.416 18.2316 317.221 18.1249 317.046C18.0181 316.871 17.876 316.72 17.7075 316.604C17.539 316.487 17.3479 316.407 17.1466 316.369H16.9609H16.7195H16.5524L16.2181 316.555L16.0696 316.666L15.9024 316.852V317.019C15.7285 317.35 15.6723 317.731 15.7432 318.099C15.814 318.467 16.0077 318.8 16.2924 319.043Z" fill="#EADECF"/>
</g>
<g style="mix-blend-mode:screen">
<path d="M6.02364 309.74L6.13506 309.535V309.368C6.19191 308.972 6.09925 308.568 5.87508 308.236C5.67216 307.949 5.37065 307.746 5.02812 307.668C4.6856 307.589 4.32605 307.639 4.01814 307.808L3.90673 307.92L3.60962 308.31V308.458V308.57C3.54681 308.947 3.63341 309.333 3.85102 309.647C4.00708 309.87 4.22078 310.046 4.46933 310.158C4.71787 310.269 4.99194 310.311 5.26229 310.278H5.42942L5.46656 310.167L5.59654 310.074L5.87508 309.833L6.02364 309.74Z" fill="#E7D8C6"/>
</g>
<path d="M159.955 804.34L192.782 771.514L-480.816 97.9214L-513.642 130.748L159.955 804.34Z" fill="url(#paint12_linear_2061_4612)"/>
<path d="M186.877 777.413L192.786 771.504L-480.812 97.9116L-486.721 103.82L186.877 777.413Z" fill="url(#paint13_linear_2061_4612)"/>
<path d="M343.592 688.423L345.64 686.375L-370.316 -29.5769L-372.365 -27.5286L343.592 688.423Z" fill="url(#paint14_linear_2061_4612)"/>
<path d="M247.02 788.685L249.069 786.636L-466.888 70.6848L-468.936 72.7331L247.02 788.685Z" fill="url(#paint15_linear_2061_4612)"/>
<path d="M130.957 851.831L133.005 849.783L-582.952 133.831L-585 135.879L130.957 851.831Z" fill="url(#paint16_linear_2061_4612)"/>
<path d="M379.788 689.677L381.836 687.628L-334.12 -28.3233L-336.169 -26.2749L379.788 689.677Z" fill="url(#paint17_linear_2061_4612)"/>
<path d="M454.196 688L456.245 685.951L-259.712 -30.0003L-261.76 -27.9519L454.196 688Z" fill="url(#paint18_linear_2061_4612)"/>
<path d="M204.814 836.494L206.863 834.446L-509.094 118.494L-511.142 120.542L204.814 836.494Z" fill="url(#paint19_linear_2061_4612)"/>
<g style="mix-blend-mode:screen">
<path d="M-118.15 378.557C-205.166 291.542 -269.825 215.148 -262.583 207.869C-255.341 200.589 -178.909 265.266 -91.8931 352.282C-4.87682 439.297 59.8004 515.692 52.5398 522.971C45.2792 530.25 -31.134 465.573 -118.15 378.557Z" fill="url(#paint20_radial_2061_4612)"/>
</g>
<!-- <g style="mix-blend-mode:screen">
<path d="M-100.509 265.285C-187.525 178.269 -252.184 101.875 -244.942 94.5959C-237.7 87.3167 -161.268 151.993 -74.2521 239.009C12.7642 326.025 77.4414 402.419 70.1808 409.698C62.9201 416.977 -13.493 352.3 -100.509 265.285Z" fill="url(#paint21_radial_2061_4612)"/>
</g> -->
<g style="mix-blend-mode:screen">
<path d="M-94.8084 259.528C-143.683 210.617 -180.042 167.647 -175.957 163.469C-171.871 159.291 -128.92 195.836 -79.9529 244.766C-30.9853 293.696 5.28072 336.647 1.19545 340.732C-2.88982 344.817 -45.8409 308.458 -94.8084 259.528Z" fill="url(#paint22_radial_2061_4612)"/>
</g>
</g>
</g>
<defs>
<linearGradient id="paint0_linear_2061_4612" x1="1646.32" y1="-523.026" x2="2455.16" y2="280.564" gradientUnits="userSpaceOnUse">
<stop stop-color="#F4EFEA"/>
<stop offset="0.06" stop-color="#F3EDE8"/>
<stop offset="0.53" stop-color="#EEE3D8"/>
<stop offset="0.99" stop-color="#E3D1BD"/>
</linearGradient>
<linearGradient id="paint1_linear_2061_4612" x1="2287.93" y1="142.882" x2="1879.91" y2="-265.136" gradientUnits="userSpaceOnUse">
<stop stop-color="#F4E0AE"/>
<stop offset="0.2" stop-color="#EACD8C"/>
<stop offset="0.32" stop-color="#E5C47C"/>
<stop offset="0.36" stop-color="#E0BE77"/>
<stop offset="0.42" stop-color="#D2AD69"/>
<stop offset="0.5" stop-color="#BC9152"/>
<stop offset="0.54" stop-color="#AA7A40"/>
<stop offset="0.62" stop-color="#C09657"/>
<stop offset="0.72" stop-color="#D4AF6B"/>
<stop offset="0.8" stop-color="#E1BF78"/>
<stop offset="0.87" stop-color="#E5C47C"/>
</linearGradient>
<linearGradient id="paint2_linear_2061_4612" x1="2170.58" y1="267.22" x2="1736.9" y2="-166.456" gradientUnits="userSpaceOnUse">
<stop stop-color="#F4E0AE"/>
<stop offset="0.2" stop-color="#EACD8C"/>
<stop offset="0.32" stop-color="#E5C47C"/>
<stop offset="0.36" stop-color="#E0BE77"/>
<stop offset="0.42" stop-color="#D2AD69"/>
<stop offset="0.5" stop-color="#BC9152"/>
<stop offset="0.54" stop-color="#AA7A40"/>
<stop offset="0.62" stop-color="#C09657"/>
<stop offset="0.72" stop-color="#D4AF6B"/>
<stop offset="0.8" stop-color="#E1BF78"/>
<stop offset="0.87" stop-color="#E5C47C"/>
</linearGradient>
<linearGradient id="paint3_linear_2061_4612" x1="2267.15" y1="166.958" x2="1833.48" y2="-266.718" gradientUnits="userSpaceOnUse">
<stop stop-color="#F4E0AE"/>
<stop offset="0.2" stop-color="#EACD8C"/>
<stop offset="0.32" stop-color="#E5C47C"/>
<stop offset="0.36" stop-color="#E0BE77"/>
<stop offset="0.42" stop-color="#D2AD69"/>
<stop offset="0.5" stop-color="#BC9152"/>
<stop offset="0.54" stop-color="#AA7A40"/>
<stop offset="0.62" stop-color="#C09657"/>
<stop offset="0.72" stop-color="#D4AF6B"/>
<stop offset="0.8" stop-color="#E1BF78"/>
<stop offset="0.87" stop-color="#E5C47C"/>
</linearGradient>
<linearGradient id="paint4_linear_2061_4612" x1="2383.2" y1="103.799" x2="1949.53" y2="-329.877" gradientUnits="userSpaceOnUse">
<stop stop-color="#F4E0AE"/>
<stop offset="0.2" stop-color="#EACD8C"/>
<stop offset="0.32" stop-color="#E5C47C"/>
<stop offset="0.36" stop-color="#E0BE77"/>
<stop offset="0.42" stop-color="#D2AD69"/>
<stop offset="0.5" stop-color="#BC9152"/>
<stop offset="0.54" stop-color="#AA7A40"/>
<stop offset="0.62" stop-color="#C09657"/>
<stop offset="0.72" stop-color="#D4AF6B"/>
<stop offset="0.8" stop-color="#E1BF78"/>
<stop offset="0.87" stop-color="#E5C47C"/>
</linearGradient>
<linearGradient id="paint5_linear_2061_4612" x1="2134.28" y1="266.018" x2="1700.6" y2="-167.657" gradientUnits="userSpaceOnUse">
<stop stop-color="#F4E0AE"/>
<stop offset="0.2" stop-color="#EACD8C"/>
<stop offset="0.32" stop-color="#E5C47C"/>
<stop offset="0.36" stop-color="#E0BE77"/>
<stop offset="0.42" stop-color="#D2AD69"/>
<stop offset="0.5" stop-color="#BC9152"/>
<stop offset="0.54" stop-color="#AA7A40"/>
<stop offset="0.62" stop-color="#C09657"/>
<stop offset="0.72" stop-color="#D4AF6B"/>
<stop offset="0.8" stop-color="#E1BF78"/>
<stop offset="0.87" stop-color="#E5C47C"/>
</linearGradient>
<linearGradient id="paint6_linear_2061_4612" x1="2059.96" y1="267.656" x2="1626.29" y2="-166.02" gradientUnits="userSpaceOnUse">
<stop stop-color="#F4E0AE"/>
<stop offset="0.2" stop-color="#EACD8C"/>
<stop offset="0.32" stop-color="#E5C47C"/>
<stop offset="0.36" stop-color="#E0BE77"/>
<stop offset="0.42" stop-color="#D2AD69"/>
<stop offset="0.5" stop-color="#BC9152"/>
<stop offset="0.54" stop-color="#AA7A40"/>
<stop offset="0.62" stop-color="#C09657"/>
<stop offset="0.72" stop-color="#D4AF6B"/>
<stop offset="0.8" stop-color="#E1BF78"/>
<stop offset="0.87" stop-color="#E5C47C"/>
</linearGradient>
<linearGradient id="paint7_linear_2061_4612" x1="2309.24" y1="119.214" x2="1875.56" y2="-314.461" gradientUnits="userSpaceOnUse">
<stop stop-color="#F4E0AE"/>
<stop offset="0.2" stop-color="#EACD8C"/>
<stop offset="0.32" stop-color="#E5C47C"/>
<stop offset="0.36" stop-color="#E0BE77"/>
<stop offset="0.42" stop-color="#D2AD69"/>
<stop offset="0.5" stop-color="#BC9152"/>
<stop offset="0.54" stop-color="#AA7A40"/>
<stop offset="0.62" stop-color="#C09657"/>
<stop offset="0.72" stop-color="#D4AF6B"/>
<stop offset="0.8" stop-color="#E1BF78"/>
<stop offset="0.87" stop-color="#E5C47C"/>
</linearGradient>
<radialGradient id="paint8_radial_2061_4612" cx="0" cy="0" r="1" gradientUnits="userSpaceOnUse" gradientTransform="translate(1931.94 15.7676) rotate(-44.9998) scale(17.831 222.888)">
<stop stop-color="#8C4703"/>
<stop offset="0.09" stop-color="#7B3F03"/>
<stop offset="0.49" stop-color="#391D01"/>
<stop offset="0.78" stop-color="#100800"/>
<stop offset="0.93"/>
</radialGradient>
<radialGradient id="paint9_radial_2061_4612" cx="0" cy="0" r="1" gradientUnits="userSpaceOnUse" gradientTransform="translate(2085.42 -150.994) rotate(-44.9998) scale(11.1472 124.848)">
<stop stop-color="#F9EEB8"/>
<stop offset="0.04" stop-color="#EBE1AE"/>
<stop offset="0.23" stop-color="#A59D7A"/>
<stop offset="0.41" stop-color="#6A654E"/>
<stop offset="0.58" stop-color="#3C3A2D"/>
<stop offset="0.72" stop-color="#1B1A14"/>
<stop offset="0.85" stop-color="#070705"/>
<stop offset="0.93"/>
</radialGradient>
<radialGradient id="paint10_radial_2061_4612" cx="0" cy="0" r="1" gradientUnits="userSpaceOnUse" gradientTransform="translate(1916.89 126.454) rotate(-44.9998) scale(17.831 222.888)">
<stop stop-color="#8C4703"/>
<stop offset="0.09" stop-color="#7B3F03"/>
<stop offset="0.49" stop-color="#391D01"/>
<stop offset="0.78" stop-color="#100800"/>
<stop offset="0.93"/>
</radialGradient>
<radialGradient id="paint11_radial_2061_4612" cx="0" cy="0" r="1" gradientUnits="userSpaceOnUse" gradientTransform="translate(2063.13 -33.444) rotate(-44.9998) scale(11.1472 124.848)">
<stop stop-color="#F9EEB8"/>
<stop offset="0.04" stop-color="#EBE1AE"/>
<stop offset="0.23" stop-color="#A59D7A"/>
<stop offset="0.41" stop-color="#6A654E"/>
<stop offset="0.58" stop-color="#3C3A2D"/>
<stop offset="0.72" stop-color="#1B1A14"/>
<stop offset="0.85" stop-color="#070705"/>
<stop offset="0.93"/>
</radialGradient>
<linearGradient id="paint12_linear_2061_4612" x1="237.924" y1="846.857" x2="-570.912" y2="43.2668" gradientUnits="userSpaceOnUse">
<stop stop-color="#F4EFEA"/>
<stop offset="0.06" stop-color="#F3EDE8"/>
<stop offset="0.53" stop-color="#EEE3D8"/>
<stop offset="0.99" stop-color="#E3D1BD"/>
</linearGradient>
<linearGradient id="paint13_linear_2061_4612" x1="-403.683" y1="180.949" x2="4.33312" y2="588.968" gradientUnits="userSpaceOnUse">
<stop stop-color="#F4E0AE"/>
<stop offset="0.2" stop-color="#EACD8C"/>
<stop offset="0.32" stop-color="#E5C47C"/>
<stop offset="0.36" stop-color="#E0BE77"/>
<stop offset="0.42" stop-color="#D2AD69"/>
<stop offset="0.5" stop-color="#BC9152"/>
<stop offset="0.54" stop-color="#AA7A40"/>
<stop offset="0.62" stop-color="#C09657"/>
<stop offset="0.72" stop-color="#D4AF6B"/>
<stop offset="0.8" stop-color="#E1BF78"/>
<stop offset="0.87" stop-color="#E5C47C"/>
</linearGradient>
<linearGradient id="paint14_linear_2061_4612" x1="-286.333" y1="56.6114" x2="147.34" y2="490.287" gradientUnits="userSpaceOnUse">
<stop stop-color="#F4E0AE"/>
<stop offset="0.2" stop-color="#EACD8C"/>
<stop offset="0.32" stop-color="#E5C47C"/>
<stop offset="0.36" stop-color="#E0BE77"/>
<stop offset="0.42" stop-color="#D2AD69"/>
<stop offset="0.5" stop-color="#BC9152"/>
<stop offset="0.54" stop-color="#AA7A40"/>
<stop offset="0.62" stop-color="#C09657"/>
<stop offset="0.72" stop-color="#D4AF6B"/>
<stop offset="0.8" stop-color="#E1BF78"/>
<stop offset="0.87" stop-color="#E5C47C"/>
</linearGradient>
<linearGradient id="paint15_linear_2061_4612" x1="-382.905" y1="156.873" x2="50.7679" y2="590.549" gradientUnits="userSpaceOnUse">
<stop stop-color="#F4E0AE"/>
<stop offset="0.2" stop-color="#EACD8C"/>
<stop offset="0.32" stop-color="#E5C47C"/>
<stop offset="0.36" stop-color="#E0BE77"/>
<stop offset="0.42" stop-color="#D2AD69"/>
<stop offset="0.5" stop-color="#BC9152"/>
<stop offset="0.54" stop-color="#AA7A40"/>
<stop offset="0.62" stop-color="#C09657"/>
<stop offset="0.72" stop-color="#D4AF6B"/>
<stop offset="0.8" stop-color="#E1BF78"/>
<stop offset="0.87" stop-color="#E5C47C"/>
</linearGradient>
<linearGradient id="paint16_linear_2061_4612" x1="-498.955" y1="220.033" x2="-65.2824" y2="653.708" gradientUnits="userSpaceOnUse">
<stop stop-color="#F4E0AE"/>
<stop offset="0.2" stop-color="#EACD8C"/>
<stop offset="0.32" stop-color="#E5C47C"/>
<stop offset="0.36" stop-color="#E0BE77"/>
<stop offset="0.42" stop-color="#D2AD69"/>
<stop offset="0.5" stop-color="#BC9152"/>
<stop offset="0.54" stop-color="#AA7A40"/>
<stop offset="0.62" stop-color="#C09657"/>
<stop offset="0.72" stop-color="#D4AF6B"/>
<stop offset="0.8" stop-color="#E1BF78"/>
<stop offset="0.87" stop-color="#E5C47C"/>
</linearGradient>
<linearGradient id="paint17_linear_2061_4612" x1="-250.032" y1="57.8126" x2="183.641" y2="491.489" gradientUnits="userSpaceOnUse">
<stop stop-color="#F4E0AE"/>
<stop offset="0.2" stop-color="#EACD8C"/>
<stop offset="0.32" stop-color="#E5C47C"/>
<stop offset="0.36" stop-color="#E0BE77"/>
<stop offset="0.42" stop-color="#D2AD69"/>
<stop offset="0.5" stop-color="#BC9152"/>
<stop offset="0.54" stop-color="#AA7A40"/>
<stop offset="0.62" stop-color="#C09657"/>
<stop offset="0.72" stop-color="#D4AF6B"/>
<stop offset="0.8" stop-color="#E1BF78"/>
<stop offset="0.87" stop-color="#E5C47C"/>
</linearGradient>
<linearGradient id="paint18_linear_2061_4612" x1="-175.716" y1="56.175" x2="257.957" y2="489.851" gradientUnits="userSpaceOnUse">
<stop stop-color="#F4E0AE"/>
<stop offset="0.2" stop-color="#EACD8C"/>
<stop offset="0.32" stop-color="#E5C47C"/>
<stop offset="0.36" stop-color="#E0BE77"/>
<stop offset="0.42" stop-color="#D2AD69"/>
<stop offset="0.5" stop-color="#BC9152"/>
<stop offset="0.54" stop-color="#AA7A40"/>
<stop offset="0.62" stop-color="#C09657"/>
<stop offset="0.72" stop-color="#D4AF6B"/>
<stop offset="0.8" stop-color="#E1BF78"/>
<stop offset="0.87" stop-color="#E5C47C"/>
</linearGradient>
<linearGradient id="paint19_linear_2061_4612" x1="-424.993" y1="204.617" x2="8.6803" y2="638.293" gradientUnits="userSpaceOnUse">
<stop stop-color="#F4E0AE"/>
<stop offset="0.2" stop-color="#EACD8C"/>
<stop offset="0.32" stop-color="#E5C47C"/>
<stop offset="0.36" stop-color="#E0BE77"/>
<stop offset="0.42" stop-color="#D2AD69"/>
<stop offset="0.5" stop-color="#BC9152"/>
<stop offset="0.54" stop-color="#AA7A40"/>
<stop offset="0.62" stop-color="#C09657"/>
<stop offset="0.72" stop-color="#D4AF6B"/>
<stop offset="0.8" stop-color="#E1BF78"/>
<stop offset="0.87" stop-color="#E5C47C"/>
</linearGradient>
<radialGradient id="paint20_radial_2061_4612" cx="0" cy="0" r="1" gradientUnits="userSpaceOnUse" gradientTransform="translate(-47.6922 308.063) rotate(135) scale(17.831 222.888)">
<stop stop-color="#8C4703"/>
<stop offset="0.09" stop-color="#7B3F03"/>
<stop offset="0.49" stop-color="#391D01"/>
<stop offset="0.78" stop-color="#100800"/>
<stop offset="0.93"/>
</radialGradient>
<radialGradient id="paint21_radial_2061_4612" cx="0" cy="0" r="1" gradientUnits="userSpaceOnUse" gradientTransform="translate(-32.6477 197.377) rotate(135) scale(17.831 222.888)">
<stop stop-color="#8C4703"/>
<stop offset="0.09" stop-color="#7B3F03"/>
<stop offset="0.49" stop-color="#391D01"/>
<stop offset="0.78" stop-color="#100800"/>
<stop offset="0.93"/>
</radialGradient>
<radialGradient id="paint22_radial_2061_4612" cx="0" cy="0" r="1" gradientUnits="userSpaceOnUse" gradientTransform="translate(-178.888 357.275) rotate(135) scale(11.1472 124.848)">
<stop stop-color="#F9EEB8"/>
<stop offset="0.04" stop-color="#EBE1AE"/>
<stop offset="0.23" stop-color="#A59D7A"/>
<stop offset="0.41" stop-color="#6A654E"/>
<stop offset="0.58" stop-color="#3C3A2D"/>
<stop offset="0.72" stop-color="#1B1A14"/>
<stop offset="0.85" stop-color="#070705"/>
<stop offset="0.93"/>
</radialGradient>
</defs>
</svg>
