<svg aria-hidden="true" style="position: absolute; width: 0; height: 0; overflow: hidden;" version="1.1" xmlns="http://www.w3.org/2000/svg" xmlns:xlink="http://www.w3.org/1999/xlink">
<defs>
<symbol id="icon-arrow" viewBox="0 0 66 32">
<path d="M66.462 15.652v0.696c-6.275 3.478-11.553 8.746-13.49 15.652-0.001 0.005-0.444-0.284-0.468-0.293s0.026 0.004 0.028-0.001c1.468-5.283 7.027-11.549 11.096-15.359-19.891 0.492-43.754-0.248-63.628 0.348v-1.391l63.628 0.348c-4.069-3.81-9.506-10.311-10.985-15.652l0.682-0c1.919 6.919 6.011 11.13 13.136 15.652z"></path>
</symbol>
<symbol id="icon-clock" viewBox="0 0 32 32">
<path d="M32 16c0 8.837-7.163 16-16 16s-16-7.163-16-16c0-8.837 7.163-16 16-16s16 7.163 16 16zM16 7c0-0.552-0.448-1-1-1s-1 0.448-1 1v11c0 0.359 0.192 0.69 0.504 0.868l7 4c0.48 0.274 1.090 0.107 1.364-0.372s0.107-1.090-0.372-1.364l-6.496-3.712v-10.42z"></path>
</symbol>
<symbol id="icon-quote" viewBox="0 0 40 32">
<path d="M2.938 30.159c2.294 2.455 6.177 2.455 8.648 0 2.294-2.455 2.294-6.137-0.177-8.416-1.235-1.227-2.647-1.578-4.059-1.929-2.824-0.526-7.059-10.345 6.53-19.288l-0.353-0.526c-7.236 3.682-8.824 7.189-10.766 10.345-3.883 7.189-3.53 16.307 0.176 19.814zM29.058 30.159c2.294 2.455 6.177 2.455 8.648 0 2.294-2.455 2.294-6.137-0.176-8.416-1.235-1.227-2.647-1.578-4.059-1.929-2.824-0.526-7.060-10.345 6.53-19.288l-0.353-0.526c-7.236 3.682-8.824 7.189-10.766 10.345-3.883 7.189-3.53 16.307 0.177 19.814z"></path>
</symbol>
<symbol id="icon-play" viewBox="0 0 29 32">
<path d="M27.085 18.324l-22.241 12.698c-1.888 1.078-4.309-0.226-4.309-2.395v-25.395c0-2.169 2.42-3.473 4.309-2.395l22.241 12.697c1.881 1.074 1.881 3.716 0 4.79z"></path>
</symbol>
<symbol id="icon-s-inst" viewBox="0 0 32 32">
<path d="M16 2.881c4.275 0 4.781 0.019 6.463 0.094 1.563 0.069 2.406 0.331 2.969 0.55 0.744 0.288 1.281 0.638 1.838 1.194 0.562 0.563 0.906 1.094 1.194 1.838 0.219 0.563 0.481 1.412 0.55 2.969 0.075 1.688 0.094 2.194 0.094 6.462 0 4.275-0.019 4.781-0.094 6.463-0.069 1.563-0.331 2.406-0.55 2.969-0.287 0.744-0.638 1.281-1.194 1.837-0.563 0.563-1.094 0.906-1.838 1.194-0.562 0.219-1.412 0.481-2.969 0.55-1.687 0.075-2.194 0.094-6.463 0.094-4.275 0-4.781-0.019-6.463-0.094-1.563-0.069-2.406-0.331-2.969-0.55-0.744-0.287-1.281-0.637-1.838-1.194-0.563-0.563-0.906-1.094-1.194-1.837-0.219-0.563-0.481-1.413-0.55-2.969-0.075-1.687-0.094-2.194-0.094-6.463 0-4.275 0.019-4.781 0.094-6.462 0.069-1.563 0.331-2.406 0.55-2.969 0.288-0.744 0.638-1.281 1.194-1.838 0.563-0.563 1.094-0.906 1.838-1.194 0.563-0.219 1.412-0.481 2.969-0.55 1.681-0.075 2.188-0.094 6.463-0.094zM16 0c-4.344 0-4.887 0.019-6.594 0.094-1.7 0.075-2.869 0.35-3.881 0.744-1.056 0.412-1.95 0.956-2.837 1.85-0.894 0.888-1.438 1.781-1.85 2.831-0.394 1.019-0.669 2.181-0.744 3.881-0.075 1.713-0.094 2.256-0.094 6.6s0.019 4.887 0.094 6.594c0.075 1.7 0.35 2.869 0.744 3.881 0.413 1.056 0.956 1.95 1.85 2.837 0.887 0.887 1.781 1.437 2.831 1.844 1.019 0.394 2.181 0.669 3.881 0.744 1.706 0.075 2.25 0.094 6.594 0.094s4.887-0.019 6.594-0.094c1.7-0.075 2.869-0.35 3.881-0.744 1.050-0.406 1.944-0.956 2.831-1.844s1.437-1.781 1.844-2.831c0.394-1.019 0.669-2.181 0.744-3.881 0.075-1.706 0.094-2.25 0.094-6.594s-0.019-4.888-0.094-6.594c-0.075-1.7-0.35-2.869-0.744-3.881-0.394-1.063-0.937-1.956-1.831-2.844-0.887-0.887-1.781-1.438-2.831-1.844-1.019-0.394-2.181-0.669-3.881-0.744-1.713-0.081-2.256-0.1-6.6-0.1z"></path>
<path d="M16 7.781c-4.537 0-8.219 3.681-8.219 8.219s3.681 8.219 8.219 8.219c4.537 0 8.219-3.681 8.219-8.219s-3.681-8.219-8.219-8.219zM16 21.331c-2.944 0-5.331-2.387-5.331-5.331s2.387-5.331 5.331-5.331c2.944 0 5.331 2.387 5.331 5.331s-2.387 5.331-5.331 5.331z"></path>
<path d="M26.463 7.456c0 1.063-0.863 1.919-1.919 1.919-1.063 0-1.919-0.863-1.919-1.919 0-1.063 0.862-1.919 1.919-1.919s1.919 0.862 1.919 1.919z"></path>
</symbol>
<symbol id="icon-s-tiktok" viewBox="0 0 28 32">
<path d="M20.097 0h-5.393v21.797c0 2.597-2.074 4.731-4.655 4.731s-4.655-2.133-4.655-4.731c0-2.551 2.028-4.638 4.517-4.73v-5.472c-5.485 0.093-9.91 4.591-9.91 10.203 0 5.658 4.517 10.203 10.094 10.203s10.094-4.591 10.094-10.203v-11.177c2.028 1.484 4.517 2.365 7.145 2.412v-5.472c-4.056-0.139-7.237-3.478-7.237-7.559z"></path>
</symbol>
<symbol id="icon-s-twit" viewBox="0 0 38 32">
<path d="M12.080 31.6c14.487 0 22.413-12.005 22.413-22.413 0-0.338-0.008-0.682-0.023-1.020 1.542-1.115 2.872-2.496 3.929-4.079-1.436 0.639-2.961 1.056-4.522 1.237 1.644-0.985 2.875-2.533 3.464-4.357-1.546 0.916-3.238 1.563-5.001 1.912-1.188-1.262-2.759-2.098-4.47-2.378s-3.466 0.011-4.995 0.829c-1.529 0.818-2.745 2.116-3.462 3.695s-0.893 3.349-0.503 5.038c-3.131-0.157-6.194-0.971-8.991-2.388s-5.264-3.406-7.243-5.838c-1.006 1.734-1.313 3.786-0.861 5.739s1.632 3.66 3.298 4.774c-1.251-0.040-2.474-0.377-3.569-0.982v0.098c-0.001 1.82 0.628 3.584 1.78 4.992s2.757 2.374 4.541 2.733c-1.159 0.317-2.375 0.363-3.554 0.135 0.503 1.565 1.483 2.934 2.801 3.915s2.911 1.527 4.554 1.56c-2.79 2.192-6.237 3.381-9.785 3.375-0.629-0.001-1.258-0.040-1.883-0.116 3.605 2.312 7.798 3.541 12.080 3.539z"></path>
</symbol>
<symbol id="icon-location" viewBox="0 0 24 32">
<path d="M12 32c0 0-12-11.373-12-20 0-6.627 5.373-12 12-12s12 5.373 12 12c0 8.627-12 20-12 20zM12 18c3.314 0 6-2.686 6-6s-2.686-6-6-6c-3.314 0-6 2.686-6 6s2.686 6 6 6z"></path>
</symbol>
<symbol id="icon-menu" viewBox="0 0 24 24">
<path d="M3 13h18c0.552 0 1-0.448 1-1s-0.448-1-1-1h-18c-0.552 0-1 0.448-1 1s0.448 1 1 1zM3 7h18c0.552 0 1-0.448 1-1s-0.448-1-1-1h-18c-0.552 0-1 0.448-1 1s0.448 1 1 1zM3 19h18c0.552 0 1-0.448 1-1s-0.448-1-1-1h-18c-0.552 0-1 0.448-1 1s0.448 1 1 1z"></path>
</symbol>
</defs>
</svg>
